<svg width="30" height="30" xmlns="http://www.w3.org/2000/svg">
 <defs>
  <style type="text/css">.st194{fill:#2D2D2D;stroke:#FFFFFF;stroke-width:0.6317;stroke-miterlimit:10;}
    .st23{fill:#FFFFFF;}

    .z-breathe {
      animation: breathe 2.5s ease-in-out infinite;
    }

    @keyframes breathe {
      0%, 100% { opacity: 0.7; }
      50% { opacity: 1; }
    }</style>
 </defs>
 <g>
  <title>background</title>
  <rect fill="none" id="canvas_background" height="602" width="802" y="-1" x="-1"/>
 </g>
 <g>
  <title>Layer 1</title>
  <path id="svg_2" d="m24.55057,28.51l-19.02,0c-2.21,0 -4,-1.79 -4,-4l0,-19.02c0,-2.21 1.79,-4 4,-4l19.03,0c2.21,0 4,1.79 4,4l0,19.03c-0.01,2.2 -1.8,3.99 -4.01,3.99z" class="st194"/>
  <polygon stroke="null" id="svg_5" points="23.813187077716464,7.099999904632568 12.945275459616937,22.90999984741211 5.699999809265137,22.90999984741211 16.567913284792837,7.099999904632568 " class="st23"/>
  <path id="svg_6" d="m14.53,22.91l1.31,-1.86c0.2,-0.29 0.54,-0.47 0.9,-0.47l7.09,0l0,2.33l-9.3,0z" class="st23"/>
 </g>
</svg>